<svg id="kite" enable-background="new 0 0 300 300" height="512" viewBox="0 0 300 300" width="512" xmlns="http://www.w3.org/2000/svg"><g><path d="m238.077 52.069c0-5.514-4.486-10-10-10-5.155 0-9.409 3.921-9.942 8.937l-28.039 2.714c-2.198.213-3.809 2.168-3.596 4.367s2.162 3.812 4.367 3.596l23.329-2.258-44.338 45.09-36.632-37.254 33.343-3.227c2.198-.213 3.809-2.168 3.596-4.367s-2.177-3.81-4.367-3.596l-35.749 3.459c-.282-5.263-4.641-9.462-9.973-9.462-5.514 0-10 4.486-10 10 0 4.74 3.318 8.712 7.751 9.736l-14.592 96.307c-2.916.244-5.473 1.745-7.141 3.957h-23.293c-1.618 0-3.076.975-3.695 2.469s-.277 3.215.867 4.359l13.86 13.859c-.192.134-.378.278-.549.449l-13.311 13.311c-10.733 10.733-10.733 28.199 0 38.933 10.734 10.733 28.2 10.733 38.933 0l28.284-28.284c4.133-4.133 9.628-6.41 15.474-6.41 5.845 0 11.34 2.276 15.473 6.41 4.133 4.133 6.409 9.628 6.409 15.473s-2.276 11.34-6.409 15.473l-4.991 4.991c-1.562 1.562-1.562 4.095 0 5.657.78.781 1.805 1.171 2.828 1.171s2.048-.391 2.828-1.171l4.991-4.991c5.645-5.644 8.753-13.148 8.753-21.13s-3.108-15.486-8.753-21.129c-5.644-5.645-13.147-8.753-21.129-8.753s-15.486 3.108-21.13 8.752l-28.284 28.284c-7.614 7.613-20.004 7.616-27.62 0-7.614-7.615-7.614-20.005 0-27.619l13.311-13.31c.171-.171.316-.358.449-.55l13.86 13.86c.765.765 1.788 1.171 2.829 1.171.516 0 1.035-.1 1.529-.305 1.495-.619 2.47-2.078 2.47-3.695v-23.293c2.213-1.668 3.713-4.225 3.958-7.141l94.481-14.315c1.835 2.124 4.541 3.475 7.561 3.475 5.514 0 10-4.486 10-10 0-3.772-2.101-7.061-5.192-8.764l8.255-85.294c5.014-.532 8.936-4.787 8.936-9.942zm-10-2c1.103 0 2 .897 2 2 0 .871-.563 1.607-1.343 1.88-.048-.439-.162-.874-.36-1.288-.396-.828-1.052-1.465-1.837-1.854.369-.446.918-.738 1.54-.738zm-7.168 13.942-7.992 82.578c-.413.138-.812.306-1.199.494l-36.248-36.863zm-51.05 51.915 36.644 37.266c-.162.538-.276 1.096-.346 1.667l-87.639 13.279zm-58.159 47.736 14.032-92.612 38.518 39.171zm8.377-105.593c1.103 0 2 .897 2 2s-.897 2-2 2-2-.897-2-2 .898-2 2-2zm-16 116c1.103 0 2 .897 2 2s-.897 2-2 2-2-.897-2-2 .898-2 2-2zm-21.619 4h11.821c.797 3.912 3.886 7.001 7.798 7.798v11.82zm133.619-20c-1.103 0-2-.897-2-2s.897-2 2-2 2 .897 2 2-.897 2-2 2z"/></g></svg>